<svg width="256" height="256" viewBox="0 0 256 256" xmlns="http://www.w3.org/2000/svg">
  <defs>
    <filter id="glow">
      <feGaussianBlur stdDeviation="6" result="blur"/>
      <feMerge><feMergeNode in="blur"/><feMergeNode in="SourceGraphic"/></feMerge>
    </filter>
    <radialGradient id="bg" cx="50%" cy="50%" r="60%">
      <stop offset="0%" stop-color="#282726"/>
      <stop offset="100%" stop-color="#100F0F"/>
    </radialGradient>
  </defs>
  <rect width="256" height="256" rx="48" fill="#100F0F"/>
  <rect width="256" height="256" rx="48" fill="url(#bg)" opacity="0.5"/>
  <g filter="url(#glow)">
    <rect x="32" y="98" width="10" height="60" rx="5" fill="#DA702C"/>
    <rect x="48" y="78" width="10" height="100" rx="5" fill="#DA702C"/>
    <rect x="64" y="58" width="10" height="140" rx="5" fill="#DA702C"/>
    <rect x="80" y="42" width="10" height="172" rx="5" fill="#DA702C"/>
    <rect x="96" y="68" width="10" height="120" rx="5" fill="#DA702C"/>
  </g>
  <rect x="120" y="24" width="3" height="208" rx="1.5" fill="#FFFCF0" opacity="0.9"/>
  <rect x="118" y="24" width="7" height="208" rx="3.5" fill="#FFFCF0" opacity="0.12"/>
  <g filter="url(#glow)">
    <rect x="136" y="52" width="10" height="152" rx="5" fill="#DA702C"/>
    <rect x="152" y="38" width="10" height="180" rx="5" fill="#DA702C"/>
    <rect x="168" y="62" width="10" height="132" rx="5" fill="#DA702C"/>
    <rect x="184" y="82" width="10" height="92" rx="5" fill="#DA702C"/>
    <rect x="200" y="100" width="10" height="56" rx="5" fill="#DA702C"/>
  </g>
  <g opacity="0.25">
    <rect x="110" y="45" width="4" height="14" rx="2" fill="#DA702C" transform="rotate(-15 112 52)"/>
    <rect x="130" y="185" width="4" height="10" rx="2" fill="#DA702C" transform="rotate(20 132 190)"/>
    <rect x="108" y="160" width="3" height="8" rx="1.5" fill="#DA702C" transform="rotate(-8 110 164)"/>
  </g>
</svg>
